#!OML:ASF E:\emotionWalksFemale\Project 1\Capture day 1\Session 1\Female1.ASF
:FULLY-SPECIFIED
:DEGREES
258
root 9.06506 14.6376 17.5893 175.991 -2.32493 -179.354
lowerback 13.6105 1.19205 0.448737
upperback -3.20027 1.67069 -0.0546146
thorax -11.1415 0.760489 -0.696807
lowerneck -7.45931 -3.54375 -7.58299
upperneck 8.81347 -4.62185 6.33575
head 4.17493 -2.23833 2.90064
rclavicle -3.64646e-015 3.08116e-015
rhumerus -43.071 8.9303 -93.5487
rradius 28.5168
rwrist 31.7202
rhand -7.85903 -52.5692
rfingers 7.12502
rthumb 18.0445 -81.7522
lclavicle -3.64646e-015 3.08116e-015
lhumerus -40.4451 5.58397 85.4576
lradius 30.1933
lwrist -19.7729
lhand -5.27033 -30.9521
lfingers 7.12502
lthumb 20.5337 -2.01798
rfemur -13.8861 1.43772 28.3334
rtibia 46.4471
rfoot -26.7037 -22.2239
rtoes 2.41821
lfemur -16.2408 -3.80648 -23.6631
ltibia 49.3967
lfoot -32.0837 4.2394
ltoes -30.4767
259
root 9.07642 14.7015 17.5647 175.969 -3.1562 -179.289
lowerback 12.6265 0.890096 0.223238
upperback -2.73094 1.23622 0.0885895
thorax -10.0527 0.582123 -0.291332
lowerneck -7.85391 -3.51906 -7.67495
upperneck 8.61435 -4.51819 6.26865
head 4.17354 -2.1801 2.89671
rclavicle 1.13059e-015 8.94531e-016
rhumerus -42.5121 9.71366 -93.6039
rradius 28.6672
rwrist 31.1672
rhand -5.82462 -52.6796
rfingers 7.12502
rthumb 20.0009 -81.6702
lclavicle 1.13059e-015 8.94531e-016
lhumerus -39.6756 6.0364 85.3304
lradius 30.0491
lwrist -19.6978
lhand -4.09391 -30.4944
lfingers 7.12502
lthumb 21.6638 -1.68641
rfemur -12.932 1.1968 28.4486
rtibia 45.0296
rfoot -26.3517 -22.6378
rtoes 2.33842
lfemur -15.4841 -4.76883 -23.6138
ltibia 48.1228
lfoot -31.5177 4.471
ltoes -31.4924
260
root 9.06647 14.7623 17.5602 176.336 -2.96504 -179.24
lowerback 12.7953 0.892209 0.427657
upperback -3.16742 1.27007 0.0455732
thorax -10.6304 0.579387 -0.468302
lowerneck -7.92202 -3.42734 -7.72628
upperneck 9.04893 -4.41399 6.2855
head 4.31112 -2.13396 2.91544
rclavicle -1.7052e-014 5.96354e-016
rhumerus -43.1555 10.1191 -93.927
rradius 28.916
rwrist 30.8683
rhand -4.50338 -52.3857
rfingers 7.12502
rthumb 21.2705 -81.2385
lclavicle -1.7052e-014 5.96354e-016
lhumerus -40.2 5.86755 85.1039
lradius 30.2191
lwrist -19.3547
lhand -2.80323 -29.5414
lfingers 7.12502
lthumb 22.9028 -0.881597
rfemur -12.6408 1.59603 28.4364
rtibia 43.6258
rfoot -25.5413 -22.6611
rtoes 1.91848
lfemur -15.2424 -4.99046 -23.6017
ltibia 46.9187
lfoot -30.9989 4.85878
ltoes -31.8486
261
root 9.06088 14.8224 17.551 176.687 -2.86913 -179.236
lowerback 12.524 0.894809 0.513592
upperback -3.38749 1.28035 0.00364817
thorax -10.7123 0.575094 -0.561575
lowerneck -8.00198 -3.39122 -7.70141
upperneck 9.34633 -4.37347 6.21268
head 4.41007 -2.11922 2.88992
rclavicle -1.58717e-014 -1.09332e-015
rhumerus -43.5915 10.4191 -94.1625
rradius 29.2034
rwrist 30.7808
rhand -4.56394 -51.8737
rfingers 7.12502
rthumb 21.2123 -80.7331
lclavicle -1.58717e-014 -1.09332e-015
lhumerus -40.521 5.54588 85.0201
lradius 30.3326
lwrist -19.1627
lhand -2.37427 -28.9879
lfingers 7.12502
lthumb 23.3144 -0.379652
rfemur -12.2008 2.0517 28.4124
rtibia 42.0904
rfoot -24.8404 -22.7648
rtoes 1.84444
lfemur -14.913 -5.25134 -23.6177
ltibia 45.6276
lfoot -30.4142 5.25051
ltoes -32.1418
262
root 9.06274 14.8839 17.5365 176.896 -3.17223 -179.191
lowerback 12.0986 0.792892 0.483677
upperback -3.43697 1.13572 0.0176108
thorax -10.5182 0.509168 -0.491584
lowerneck -8.08269 -3.39329 -7.54374
upperneck 9.47316 -4.37814 6.04697
head 4.45557 -2.1246 2.81108
rclavicle -7.46685e-015 -3.08116e-015
rhumerus -43.7828 10.5744 -94.2275
rradius 29.3248
rwrist 30.9864
rhand -5.45306 -50.9879
rfingers 7.12502
rthumb 20.3581 -79.9408
lclavicle -7.46685e-015 -3.08116e-015
lhumerus -40.6332 5.48223 84.8916
lradius 30.1868
lwrist -19.5844
lhand -2.45628 -29.004
lfingers 7.12502
lthumb 23.2357 -0.385828
rfemur -11.5609 2.2444 28.4638
rtibia 40.5645
rfoot -24.0968 -23.0618
rtoes 1.42933
lfemur -14.4413 -5.81644 -23.5843
ltibia 44.3362
lfoot -29.7709 5.49956
ltoes -32.2774
263
root 9.05908 14.9456 17.5052 176.81 -3.36625 -179.139
lowerback 11.6847 0.751841 0.50701
upperback -3.33356 1.08132 0.0145975
thorax -10.1591 0.484342 -0.488869
lowerneck -8.21621 -3.4217 -7.42756
upperneck 9.57926 -4.42331 6.01244
head 4.51011 -2.14316 2.77624
rclavicle -1.23122e-014 -1.19271e-015
rhumerus -43.8527 10.7894 -94.2886
rradius 29.4867
rwrist 30.7227
rhand -5.91683 -50.3158
rfingers 7.12502
rthumb 19.9123 -79.3156
lclavicle -1.23122e-014 -1.19271e-015
lhumerus -40.6944 5.26076 84.8201
lradius 30.1097
lwrist -20.062
lhand -2.51921 -29.0978
lfingers 7.12502
lthumb 23.1753 -0.472029
rfemur -10.5241 2.36309 28.5113
rtibia 38.9927
rfoot -23.3401 -23.3239
rtoes 0.71549
lfemur -13.5377 -6.32224 -23.5926
ltibia 43.0205
lfoot -29.3029 5.57459
ltoes -31.8791
264
root 9.05649 15 17.4943 176.906 -3.60517 -179.103
lowerback 11.4412 0.697336 0.478128
upperback -3.3216 1.00504 0.051329
thorax -10.0044 0.451666 -0.413866
lowerneck -8.43645 -3.45667 -7.41847
upperneck 9.71739 -4.45252 5.94206
head 4.58958 -2.1573 2.7475
rclavicle 7.9576e-015 3.67752e-015
rhumerus -43.9952 11.284 -94.3786
rradius 30.0852
rwrist 29.4652
rhand -4.98826 -50.4935
rfingers 7.12502
rthumb 20.8047 -79.3981
lclavicle 7.9576e-015 3.67752e-015
lhumerus -40.7636 4.72229 84.9683
lradius 30.2879
lwrist -20.1404
lhand -2.68815 -28.9998
lfingers 7.12502
lthumb 23.0132 -0.35372
rfemur -9.79731 2.47938 28.5203
rtibia 37.4411
rfoot -22.6188 -23.5023
rtoes 0.818715
lfemur -12.9658 -6.80018 -23.5794
ltibia 41.7581
lfoot -28.7652 5.59814
ltoes -32.0352
265
root 9.05346 15.0485 17.4927 177.088 -3.70251 -179.012
lowerback 11.2402 0.657536 0.497944
upperback -3.35324 0.960938 0.146011
thorax -9.92268 0.432511 -0.311992
lowerneck -8.59545 -3.45444 -7.51722
upperneck 9.80234 -4.42098 5.89577
head 4.64137 -2.14472 2.74912
rclavicle 4.11236e-015 5.46658e-015
rhumerus -44.1681 12.0483 -94.5077
rradius 30.7191
rwrist 27.7503
rhand -3.83248 -50.8333
rfingers 7.12502
rthumb 21.9148 -79.6121
lclavicle 4.11236e-015 5.46658e-015
lhumerus -40.8157 4.34824 85.0919
lradius 30.382
lwrist -20.2324
lhand -3.08104 -29.1632
lfingers 7.12502
lthumb 22.6362 -0.470548
rfemur -9.207 2.76465 28.5861
rtibia 35.9268
rfoot -21.9441 -23.5678
rtoes 1.17377
lfemur -12.5687 -7.15191 -23.4865
ltibia 40.5671
lfoot -28.2154 5.80862
ltoes -32.5884
266
root 9.05077 15.093 17.4872 177.299 -3.62663 -178.937
lowerback 10.9958 0.670179 0.531765
upperback -3.40621 0.98397 0.196183
thorax -9.83733 0.442861 -0.278637
lowerneck -8.7372 -3.42002 -7.54103
upperneck 9.84736 -4.36374 5.91691
head 4.67596 -2.11349 2.76185
rclavicle -1.41137e-014 -2.28602e-015
rhumerus -44.2103 12.6546 -94.6014
rradius 30.8735
rwrist 26.9334
rhand -3.85069 -50.4355
rfingers 7.12502
rthumb 21.8973 -79.2163
lclavicle -1.41137e-014 -2.28602e-015
lhumerus -40.9244 3.95314 85.1543
lradius 30.3787
lwrist -20.3833
lhand -3.54362 -29.4819
lfingers 7.12502
lthumb 22.1922 -0.735779
rfemur -8.63851 3.10233 28.6428
rtibia 34.47
rfoot -21.3658 -23.5752
rtoes 0.991175
lfemur -12.215 -7.39342 -23.4052
ltibia 39.4544
lfoot -27.6914 6.13423
ltoes -32.9154
267
root 9.04503 15.1388 17.4772 177.572 -3.37651 -178.823
lowerback 10.6645 0.721247 0.610481
upperback -3.47853 1.06444 0.262969
thorax -9.7212 0.478375 -0.262432
lowerneck -9.0315 -3.39665 -7.53239
upperneck 10.0841 -4.3182 5.88198
head 4.79391 -2.08922 2.74876
rclavicle 2.41772e-014 6.11263e-015
rhumerus -44.235 13.0093 -94.571
rradius 30.8887
rwrist 26.7285
rhand -4.11443 -49.9241
rfingers 7.12502
rthumb 21.6441 -78.7344
lclavicle 2.41772e-014 6.11263e-015
lhumerus -40.9923 3.67202 85.205
lradius 30.2623
lwrist -20.6249
lhand -3.95845 -29.9013
lfingers 7.12502
lthumb 21.7939 -1.10841
rfemur -8.14343 3.49145 28.7088
rtibia 33.0267
rfoot -20.9284 -23.4447
rtoes 1.09928
lfemur -11.8794 -7.54439 -23.28
ltibia 38.3756
lfoot -27.2021 6.3586
ltoes -32.5764
268
root 9.03577 15.1891 17.4621 177.76 -3.2538 -178.712
lowerback 10.3988 0.722334 0.757778
upperback -3.55932 1.08589 0.31426
thorax -9.65175 0.480294 -0.291006
lowerneck -9.28919 -3.40191 -7.62485
upperneck 10.4377 -4.32233 5.94943
head 4.94976 -2.09024 2.78092
rclavicle 1.16165e-014 1.68967e-015
rhumerus -44.3687 13.2554 -94.5373
rradius 31.0105
rwrist 26.453
rhand -3.64838 -49.875
rfingers 7.12502
rthumb 22.0916 -78.633
lclavicle 1.16165e-014 1.68967e-015
lhumerus -41.0433 3.64594 85.155
lradius 30.0634
lwrist -20.8878
lhand -4.02009 -30.091
lfingers 7.12502
lthumb 21.7347 -1.29123
rfemur -7.55374 3.84069 28.7486
rtibia 31.5859
rfoot -20.5589 -23.3428
rtoes 1.32763
lfemur -11.411 -7.85261 -23.1779
ltibia 37.3232
lfoot -26.8327 6.2132
ltoes -30.6592
